<svg viewBox="0 0 375 36" xmlns="http://www.w3.org/2000/svg" data-logo="logo">
        <g transform="translate(0, 1) rotate(0)" id="logogram" style="opacity: 1;"><path fill="#007AFF" d="M15.4992 0H36.5808L21.0816 22.9729H0L15.4992 0Z"></path><path fill="#312ECB" d="M16.4224 25.102L10.4192 34H32.5008L48 11.0271H31.7024L22.2064 25.102H16.4224Z"></path></g>
        <g transform="translate(54, 4.5)" id="logotype" style="opacity: 1;"><path d="M13.52 27L8.31 27L8.31 1.54L18.24 1.54Q21.14 1.54 23.18 2.64Q25.21 3.74 26.28 5.68Q27.35 7.62 27.35 10.13L27.35 10.13Q27.35 12.66 26.26 14.58Q25.17 16.51 23.12 17.59Q21.06 18.68 18.12 18.68L18.12 18.68L11.73 18.68L11.73 14.47L17.28 14.47Q18.89 14.47 19.92 13.92Q20.95 13.36 21.46 12.39Q21.96 11.41 21.96 10.13L21.96 10.13Q21.96 8.85 21.46 7.88Q20.95 6.90 19.91 6.37Q18.87 5.84 17.26 5.84L17.26 5.84L13.52 5.84L13.52 27ZM37.22 27.38L37.22 27.38Q34.30 27.38 32.18 26.18Q30.06 24.98 28.92 22.78Q27.79 20.57 27.79 17.55L27.79 17.55Q27.79 14.59 28.92 12.37Q30.04 10.15 32.11 8.90Q34.18 7.65 36.96 7.65L36.96 7.65Q38.84 7.65 40.47 8.25Q42.09 8.85 43.32 10.06Q44.55 11.26 45.24 13.07Q45.94 14.88 45.94 17.34L45.94 17.34L45.94 18.78L29.89 18.78L29.89 15.57L43.42 15.57L41.03 16.42Q41.03 14.93 40.58 13.83Q40.13 12.73 39.23 12.12Q38.33 11.52 37.00 11.52L37.00 11.52Q35.68 11.52 34.75 12.13Q33.82 12.75 33.34 13.80Q32.86 14.85 32.86 16.20L32.86 16.20L32.86 18.47Q32.86 20.13 33.42 21.26Q33.97 22.39 34.97 22.95Q35.97 23.51 37.31 23.51L37.31 23.51Q38.21 23.51 38.95 23.26Q39.68 23.00 40.20 22.50Q40.72 21.99 41.00 21.26L41.00 21.26L45.65 22.13Q45.18 23.70 44.04 24.89Q42.89 26.08 41.18 26.73Q39.46 27.38 37.22 27.38ZM52.29 27L47.17 27L47.17 7.89L52.12 7.89L52.12 11.23L52.33 11.23Q52.86 9.45 54.10 8.54Q55.33 7.64 56.94 7.64L56.94 7.64Q57.33 7.64 57.79 7.68Q58.24 7.72 58.60 7.81L58.60 7.81L58.60 12.39Q58.26 12.27 57.61 12.20Q56.96 12.13 56.38 12.13L56.38 12.13Q55.21 12.13 54.27 12.64Q53.33 13.14 52.81 14.04Q52.29 14.93 52.29 16.13L52.29 16.13L52.29 27ZM57.30 7.89L69.77 7.89L69.77 11.81L57.30 11.81L57.30 7.89ZM65.77 27L60.66 27L60.66 6.42Q60.66 4.39 61.48 3.04Q62.29 1.69 63.69 1.01Q65.09 0.34 66.87 0.34L66.87 0.34Q68.08 0.34 69.08 0.54Q70.08 0.73 70.54 0.87L70.54 0.87L69.62 4.73Q69.29 4.65 68.86 4.56Q68.42 4.48 67.91 4.48L67.91 4.48Q66.75 4.48 66.26 5.03Q65.77 5.59 65.77 6.59L65.77 6.59L65.77 27ZM79.43 27.38L79.43 27.38Q76.50 27.38 74.39 26.18Q72.27 24.98 71.13 22.78Q69.99 20.57 69.99 17.55L69.99 17.55Q69.99 14.59 71.12 12.37Q72.25 10.15 74.32 8.90Q76.38 7.65 79.17 7.65L79.17 7.65Q81.05 7.65 82.67 8.25Q84.30 8.85 85.53 10.06Q86.76 11.26 87.45 13.07Q88.14 14.88 88.14 17.34L88.14 17.34L88.14 18.78L72.10 18.78L72.10 15.57L85.63 15.57L83.24 16.42Q83.24 14.93 82.79 13.83Q82.33 12.73 81.43 12.12Q80.54 11.52 79.20 11.52L79.20 11.52Q77.89 11.52 76.96 12.13Q76.03 12.75 75.55 13.80Q75.07 14.85 75.07 16.20L75.07 16.20L75.07 18.47Q75.07 20.13 75.62 21.26Q76.18 22.39 77.18 22.95Q78.18 23.51 79.51 23.51L79.51 23.51Q80.42 23.51 81.15 23.26Q81.89 23.00 82.41 22.50Q82.93 21.99 83.20 21.26L83.20 21.26L87.85 22.13Q87.39 23.70 86.25 24.89Q85.10 26.08 83.38 26.73Q81.67 27.38 79.43 27.38ZM97.92 27.38L97.92 27.38Q95.03 27.38 92.93 26.14Q90.84 24.90 89.70 22.68Q88.57 20.47 88.57 17.53L88.57 17.53Q88.57 14.56 89.70 12.35Q90.84 10.13 92.93 8.89Q95.03 7.65 97.92 7.65L97.92 7.65Q99.61 7.65 101.04 8.10Q102.48 8.54 103.59 9.36Q104.70 10.18 105.42 11.36Q106.14 12.54 106.41 14.01L106.41 14.01L101.64 14.90Q101.49 14.15 101.16 13.56Q100.84 12.97 100.38 12.55Q99.92 12.13 99.31 11.91Q98.70 11.69 97.97 11.69L97.97 11.69Q96.60 11.69 95.67 12.42Q94.74 13.16 94.27 14.47Q93.80 15.79 93.80 17.52L93.80 17.52Q93.80 19.22 94.27 20.53Q94.74 21.84 95.67 22.59Q96.60 23.34 97.97 23.34L97.97 23.34Q98.70 23.34 99.32 23.11Q99.93 22.88 100.41 22.45Q100.89 22.01 101.21 21.39Q101.54 20.78 101.68 20.01L101.68 20.01L106.44 20.88Q106.17 22.40 105.45 23.59Q104.73 24.78 103.62 25.63Q102.51 26.49 101.07 26.93Q99.63 27.38 97.92 27.38ZM105.84 7.89L117.17 7.89L117.17 11.81L105.84 11.81L105.84 7.89ZM108.48 21.86L108.48 3.35L113.60 3.35L113.60 21.41Q113.60 22.32 114.00 22.75Q114.41 23.19 115.35 23.19L115.35 23.19Q115.64 23.19 116.17 23.11Q116.70 23.04 116.97 22.97L116.97 22.97L117.70 26.81Q116.85 27.07 116.00 27.17Q115.16 27.27 114.39 27.27L114.39 27.27Q111.52 27.27 110.00 25.87Q108.48 24.47 108.48 21.86L108.48 21.86ZM129.58 27L124.36 27L124.36 1.54L134.29 1.54Q137.20 1.54 139.23 2.64Q141.27 3.74 142.33 5.68Q143.40 7.62 143.40 10.13L143.40 10.13Q143.40 12.66 142.32 14.58Q141.23 16.51 139.17 17.59Q137.11 18.68 134.17 18.68L134.17 18.68L127.78 18.68L127.78 14.47L133.34 14.47Q134.94 14.47 135.98 13.92Q137.01 13.36 137.52 12.39Q138.02 11.41 138.02 10.13L138.02 10.13Q138.02 8.85 137.52 7.88Q137.01 6.90 135.97 6.37Q134.93 5.84 133.32 5.84L133.32 5.84L129.58 5.84L129.58 27ZM149.98 27.38L149.98 27.38Q148.17 27.38 146.72 26.74Q145.28 26.09 144.45 24.82Q143.62 23.55 143.62 21.65L143.62 21.65Q143.62 20.06 144.21 18.98Q144.80 17.91 145.82 17.26Q146.84 16.61 148.13 16.27Q149.42 15.93 150.84 15.79L150.84 15.79Q152.49 15.62 153.51 15.47Q154.53 15.33 155.00 15.01Q155.47 14.70 155.47 14.08L155.47 14.08L155.47 13.99Q155.47 13.17 155.12 12.61Q154.78 12.05 154.12 11.75Q153.45 11.45 152.48 11.45L152.48 11.45Q151.48 11.45 150.75 11.75Q150.01 12.05 149.55 12.54Q149.09 13.04 148.87 13.65L148.87 13.65L144.17 12.87Q144.67 11.21 145.81 10.05Q146.96 8.88 148.66 8.27Q150.36 7.65 152.48 7.65L152.48 7.65Q154.03 7.65 155.48 8.02Q156.94 8.39 158.09 9.16Q159.24 9.93 159.92 11.16Q160.59 12.39 160.59 14.13L160.59 14.13L160.59 27L155.74 27L155.74 24.35L155.57 24.35Q155.11 25.24 154.34 25.91Q153.57 26.59 152.48 26.98Q151.40 27.38 149.98 27.38ZM151.43 23.77L151.43 23.77Q152.65 23.77 153.56 23.29Q154.48 22.81 154.99 21.99Q155.50 21.17 155.50 20.16L155.50 20.16L155.50 18.10Q155.28 18.27 154.82 18.40Q154.36 18.54 153.79 18.64Q153.23 18.75 152.68 18.83Q152.13 18.92 151.71 18.97L151.71 18.97Q150.77 19.10 150.05 19.41Q149.33 19.72 148.94 20.22Q148.55 20.73 148.55 21.51L148.55 21.51Q148.55 22.25 148.92 22.75Q149.30 23.26 149.94 23.51Q150.58 23.77 151.43 23.77ZM160.85 7.89L172.18 7.89L172.18 11.81L160.85 11.81L160.85 7.89ZM163.48 21.86L163.48 3.35L168.61 3.35L168.61 21.41Q168.61 22.32 169.01 22.75Q169.41 23.19 170.35 23.19L170.35 23.19Q170.64 23.19 171.17 23.11Q171.70 23.04 171.97 22.97L171.97 22.97L172.71 26.81Q171.85 27.07 171.01 27.17Q170.16 27.27 169.39 27.27L169.39 27.27Q166.52 27.27 165.00 25.87Q163.48 24.47 163.48 21.86L163.48 21.86ZM178.36 27L173.24 27L173.24 7.89L178.36 7.89L178.36 27ZM175.80 5.40L175.80 5.40Q174.64 5.40 173.82 4.63Q173.00 3.86 173.00 2.77L173.00 2.77Q173.00 1.67 173.82 0.90Q174.64 0.13 175.80 0.13L175.80 0.13Q176.96 0.13 177.79 0.90Q178.62 1.66 178.62 2.77L178.62 2.77Q178.62 3.86 177.79 4.63Q176.96 5.40 175.80 5.40ZM189.08 27.38L189.08 27.38Q186.15 27.38 184.03 26.18Q181.92 24.98 180.78 22.78Q179.64 20.57 179.64 17.55L179.64 17.55Q179.64 14.59 180.77 12.37Q181.90 10.15 183.97 8.90Q186.03 7.65 188.82 7.65L188.82 7.65Q190.70 7.65 192.32 8.25Q193.95 8.85 195.18 10.06Q196.41 11.26 197.10 13.07Q197.79 14.88 197.79 17.34L197.79 17.34L197.79 18.78L181.74 18.78L181.74 15.57L195.28 15.57L192.89 16.42Q192.89 14.93 192.43 13.83Q191.98 12.73 191.08 12.12Q190.19 11.52 188.85 11.52L188.85 11.52Q187.54 11.52 186.61 12.13Q185.68 12.75 185.20 13.80Q184.72 14.85 184.72 16.20L184.72 16.20L184.72 18.47Q184.72 20.13 185.27 21.26Q185.83 22.39 186.83 22.95Q187.83 23.51 189.16 23.51L189.16 23.51Q190.07 23.51 190.80 23.26Q191.54 23.00 192.06 22.50Q192.58 21.99 192.85 21.26L192.85 21.26L197.50 22.13Q197.04 23.70 195.89 24.89Q194.75 26.08 193.03 26.73Q191.31 27.38 189.08 27.38ZM204.15 15.94L204.15 15.94L204.15 27L199.02 27L199.02 7.89L203.86 7.89L203.94 12.66L203.63 12.66Q204.39 10.27 205.92 8.96Q207.45 7.65 209.87 7.65L209.87 7.65Q211.85 7.65 213.32 8.52Q214.79 9.38 215.61 11.00Q216.43 12.61 216.43 14.85L216.43 14.85L216.43 27L211.31 27L211.31 15.74Q211.31 13.96 210.39 12.95Q209.48 11.94 207.86 11.94L207.86 11.94Q206.78 11.94 205.93 12.41Q205.09 12.88 204.62 13.77Q204.15 14.66 204.15 15.94ZM227.08 27.38L227.08 27.38Q224.19 27.38 222.10 26.14Q220.00 24.90 218.87 22.68Q217.73 20.47 217.73 17.53L217.73 17.53Q217.73 14.56 218.87 12.35Q220.00 10.13 222.10 8.89Q224.19 7.65 227.08 7.65L227.08 7.65Q228.77 7.65 230.21 8.10Q231.64 8.54 232.75 9.36Q233.86 10.18 234.58 11.36Q235.30 12.54 235.57 14.01L235.57 14.01L230.81 14.90Q230.65 14.15 230.33 13.56Q230.00 12.97 229.54 12.55Q229.08 12.13 228.47 11.91Q227.87 11.69 227.13 11.69L227.13 11.69Q225.76 11.69 224.83 12.42Q223.90 13.16 223.43 14.47Q222.96 15.79 222.96 17.52L222.96 17.52Q222.96 19.22 223.43 20.53Q223.90 21.84 224.83 22.59Q225.76 23.34 227.13 23.34L227.13 23.34Q227.87 23.34 228.48 23.11Q229.10 22.88 229.57 22.45Q230.05 22.01 230.38 21.39Q230.70 20.78 230.84 20.01L230.84 20.01L235.61 20.88Q235.33 22.40 234.62 23.59Q233.90 24.78 232.79 25.63Q231.68 26.49 230.23 26.93Q228.79 27.38 227.08 27.38ZM245.48 27.38L245.48 27.38Q242.56 27.38 240.44 26.18Q238.32 24.98 237.19 22.78Q236.05 20.57 236.05 17.55L236.05 17.55Q236.05 14.59 237.18 12.37Q238.31 10.15 240.37 8.90Q242.44 7.65 245.23 7.65L245.23 7.65Q247.11 7.65 248.73 8.25Q250.35 8.85 251.58 10.06Q252.81 11.26 253.51 13.07Q254.20 14.88 254.20 17.34L254.20 17.34L254.20 18.78L238.15 18.78L238.15 15.57L251.69 15.57L249.29 16.42Q249.29 14.93 248.84 13.83Q248.39 12.73 247.49 12.12Q246.59 11.52 245.26 11.52L245.26 11.52Q243.95 11.52 243.01 12.13Q242.08 12.75 241.60 13.80Q241.13 14.85 241.13 16.20L241.13 16.20L241.13 18.47Q241.13 20.13 241.68 21.26Q242.24 22.39 243.24 22.95Q244.24 23.51 245.57 23.51L245.57 23.51Q246.47 23.51 247.21 23.26Q247.94 23.00 248.47 22.50Q248.99 21.99 249.26 21.26L249.26 21.26L253.91 22.13Q253.45 23.70 252.30 24.89Q251.16 26.08 249.44 26.73Q247.72 27.38 245.48 27.38ZM270.50 27L270.50 27L263.92 27L263.92 22.51L270.26 22.51Q272.72 22.51 274.39 21.63Q276.05 20.76 276.89 18.93Q277.73 17.10 277.73 14.25L277.73 14.25Q277.73 11.41 276.88 9.59Q276.04 7.77 274.39 6.90Q272.74 6.03 270.29 6.03L270.29 6.03L263.80 6.03L263.80 1.54L270.60 1.54Q274.43 1.54 277.19 3.07Q279.95 4.60 281.44 7.44Q282.92 10.29 282.92 14.25L282.92 14.25Q282.92 18.23 281.44 21.09Q279.95 23.94 277.16 25.47Q274.38 27 270.50 27ZM261.56 1.54L266.77 1.54L266.77 27L261.56 27L261.56 1.54ZM289.77 27.38L289.77 27.38Q287.96 27.38 286.52 26.74Q285.07 26.09 284.25 24.82Q283.42 23.55 283.42 21.65L283.42 21.65Q283.42 20.06 284.01 18.98Q284.60 17.91 285.61 17.26Q286.63 16.61 287.92 16.27Q289.21 15.93 290.63 15.79L290.63 15.79Q292.29 15.62 293.30 15.47Q294.32 15.33 294.79 15.01Q295.26 14.70 295.26 14.08L295.26 14.08L295.26 13.99Q295.26 13.17 294.92 12.61Q294.58 12.05 293.91 11.75Q293.24 11.45 292.27 11.45L292.27 11.45Q291.28 11.45 290.54 11.75Q289.81 12.05 289.35 12.54Q288.89 13.04 288.66 13.65L288.66 13.65L283.96 12.87Q284.46 11.21 285.60 10.05Q286.75 8.88 288.45 8.27Q290.15 7.65 292.27 7.65L292.27 7.65Q293.82 7.65 295.28 8.02Q296.73 8.39 297.88 9.16Q299.04 9.93 299.71 11.16Q300.39 12.39 300.39 14.13L300.39 14.13L300.39 27L295.53 27L295.53 24.35L295.36 24.35Q294.90 25.24 294.13 25.91Q293.36 26.59 292.28 26.98Q291.19 27.38 289.77 27.38ZM291.23 23.77L291.23 23.77Q292.44 23.77 293.35 23.29Q294.27 22.81 294.78 21.99Q295.29 21.17 295.29 20.16L295.29 20.16L295.29 18.10Q295.07 18.27 294.61 18.40Q294.15 18.54 293.59 18.64Q293.02 18.75 292.47 18.83Q291.93 18.92 291.50 18.97L291.50 18.97Q290.56 19.10 289.84 19.41Q289.12 19.72 288.73 20.22Q288.34 20.73 288.34 21.51L288.34 21.51Q288.34 22.25 288.71 22.75Q289.09 23.26 289.73 23.51Q290.37 23.77 291.23 23.77ZM307.61 15.94L307.61 15.94L307.61 27L302.49 27L302.49 1.54L307.51 1.54L307.51 12.66L307.10 12.66Q307.85 10.27 309.38 8.96Q310.91 7.65 313.34 7.65L313.34 7.65Q315.32 7.65 316.80 8.52Q318.28 9.38 319.09 11.00Q319.90 12.61 319.90 14.85L319.90 14.85L319.90 27L314.77 27L314.77 15.74Q314.77 13.96 313.86 12.95Q312.95 11.94 311.32 11.94L311.32 11.94Q310.25 11.94 309.40 12.41Q308.55 12.88 308.08 13.77Q307.61 14.66 307.61 15.94Z" fill="#ffffff"></path></g>
        
      </svg>